<?xml version="1.0" standalone="no"?>
<!DOCTYPE svg PUBLIC "-//W3C//DTD SVG 20010904//EN"
 "http://www.w3.org/TR/2001/REC-SVG-20010904/DTD/svg10.dtd">
<svg version="1.0" xmlns="http://www.w3.org/2000/svg"
 width="100.000000pt" height="100.000000pt" viewBox="0 0 100.000000 100.000000"
 preserveAspectRatio="xMidYMid meet">
<metadata>
Created by potrace 1.11, written by Peter Selinger 2001-2013
</metadata>
<g transform="translate(0.000000,100.000000) scale(0.100000,-0.100000)"
fill="#000000" stroke="none">
<path d="M0 777 c0 -164 3 -207 15 -224 15 -21 22 -22 180 -22 l165 1 0 33 c0
18 -6 38 -13 44 -8 6 -62 11 -135 12 -106 0 -122 3 -123 17 -1 19 -1 233 0
245 1 4 63 6 139 5 l137 -3 2 -74 c2 -80 11 -97 56 -105 l27 -5 0 124 c0 99
-3 127 -16 139 -13 14 -48 16 -225 16 l-209 0 0 -203z"/>
<path d="M556 967 c-15 -11 -18 -29 -18 -127 0 -63 1 -120 1 -127 1 -11 21
-11 62 2 20 7 21 7 23 105 l1 65 143 3 143 3 -3 -133 -3 -133 -124 -3 c-71 -1
-130 -7 -138 -14 -7 -6 -13 -25 -13 -44 l0 -33 165 0 c222 -2 205 -21 205 244
l0 205 -213 0 c-159 0 -218 -3 -231 -13z"/>
<path d="M164 806 c-3 -8 -4 -36 -2 -63 l3 -48 60 0 60 0 0 60 0 60 -58 3
c-43 2 -59 -1 -63 -12z"/>
<path d="M704 807 c-3 -8 -4 -36 -2 -63 l3 -49 48 -3 c64 -4 76 7 74 71 l-2
52 -58 3 c-42 2 -59 -1 -63 -11z"/>
<path d="M440 540 c-7 -13 -8 -40 -1 -105 1 -9 56 -11 114 -6 4 1 7 29 5 63
l-3 63 -53 1 c-40 0 -55 -4 -62 -16z"/>
<path d="M16 434 c-14 -13 -16 -48 -16 -225 l0 -209 209 0 c177 0 212 2 225
16 13 12 16 40 16 140 l0 125 -27 -5 c-16 -2 -31 -5 -35 -5 -12 -2 -23 -57
-23 -119 l0 -62 -136 0 c-101 0 -138 3 -141 12 -3 10 -3 126 1 241 1 15 14 17
121 17 104 0 122 2 139 19 12 12 17 27 14 45 l-5 26 -163 0 c-135 0 -166 -3
-179 -16z"/>
<path d="M630 419 c0 -51 20 -58 158 -59 l122 0 0 -135 0 -136 -142 3 -143 3
-1 55 c-3 111 -6 119 -52 126 -36 6 -34 14 -34 -136 1 -109 1 -107 18 -124 13
-14 48 -16 230 -16 l215 0 -3 215 c-2 179 -6 217 -18 225 -8 5 -90 10 -182 10
l-168 0 0 -31z"/>
<path d="M164 276 c-3 -7 -4 -35 -2 -62 l3 -49 50 -1 c28 0 55 3 61 7 8 7 11
71 5 112 -2 14 -111 8 -117 -7z"/>
<path d="M708 283 c-4 -7 -3 -58 1 -104 1 -13 12 -16 59 -15 l57 1 3 63 3 62
-60 0 c-33 0 -61 -3 -63 -7z"/>
</g>
</svg>
